<svg width="125" height="132" viewBox="0 0 125 132" fill="none" xmlns="http://www.w3.org/2000/svg">
<path d="M103.802 91.5922C98.9489 88.8575 90.5521 85.0726 87.9035 81.9976C86.8106 80.7234 87.2455 79.7579 87.669 79.1165C88.0799 78.5221 89.6005 78.1998 90.4097 78.4669C92.2455 79.0343 93.9933 79.9304 95.6454 80.9015C99.3237 83.0446 102.966 85.2284 106.517 87.5639C108.401 88.7983 108.637 90.5475 107.169 91.2361C106.307 91.6344 105.493 92.0452 103.802 91.5922Z" fill="#CD4631"/>
<path d="M11.9121 105.847C12.4803 104.666 13.126 104.134 14.0647 103.354C17.7116 100.356 21.457 97.459 25.1554 94.5497C25.3764 94.3825 25.6271 94.198 25.8824 94.0903C27.0354 93.5437 28.3435 92.8877 29.3316 94.0835C30.3134 95.3027 29.5385 96.5042 28.5981 97.3846C24.6857 101.092 20.7327 104.764 16.7391 108.399C16.1341 108.967 15.249 109.358 14.4268 109.516C12.3863 109.9 11.1107 108.275 11.9121 105.847Z" fill="#CD4631"/>
<path d="M70.8021 120.747C70.519 121.804 69.496 122.335 68.8541 122.289C67.9884 122.233 67.3218 121.903 66.3618 120.79C66.0319 120.425 65.967 119.728 65.8643 119.172C65.1444 115.004 64.3947 110.852 63.728 106.673C63.5508 105.644 63.4113 104.474 63.7396 103.53C64.0428 102.681 64.9162 101.581 65.7023 101.465C66.4649 101.342 67.4057 101.493 68.2026 102.839C68.5011 103.322 68.7069 104.056 68.8078 104.712C69.4477 109.086 70.0875 113.46 70.674 117.844C70.7779 118.677 70.7456 119.549 70.8021 120.747Z" fill="#CD4631"/>
<path d="M4.95373 68.4279C3.95555 67.8333 3.38963 67.1281 3.41401 66.3798C3.44176 65.431 4.20866 64.3532 4.95163 63.6464C5.52059 63.1194 6.54315 62.9657 7.3871 62.915C11.6069 62.6617 15.8438 62.4382 20.0853 62.2914C20.7993 62.2563 21.6634 62.4123 22.2407 62.7934C23.1793 63.4224 23.4052 64.3636 22.2958 65.1232C21.6753 65.5609 20.978 66.0031 20.2624 66.1385C16.1092 66.9883 11.9515 67.7615 7.77652 68.5049C7.0139 68.6277 5.92214 69.0397 4.95373 68.4279Z" fill="#CD4631"/>
<path d="M95.2901 49.4532C94.8302 49.1035 94.6106 48.1388 94.7381 47.5691C94.9222 46.788 95.4086 45.9118 96.048 45.4038C99.0367 42.9837 102.13 40.642 105.194 38.3176C105.642 37.9596 106.182 37.7269 106.723 37.4943C107.94 36.9901 109.437 36.6615 110.015 38.0744C110.349 38.8936 110.048 40.675 109.397 41.1298C105.411 43.9871 101.234 46.6171 97.0799 49.2534C96.7399 49.4894 96.0913 49.844 95.2901 49.4532Z" fill="#CD4631"/>
<path d="M21.3866 24.1909C22.5944 24.9423 23.541 25.4475 24.4092 26.0576C26.9325 27.8157 29.4495 29.5973 31.9368 31.3961C32.6297 31.9089 33.3697 32.4343 33.8715 33.0972C34.2232 33.5689 34.4772 34.5931 34.2247 34.8778C33.7983 35.3422 33.1933 35.9099 32.2496 35.5815C31.8568 35.4511 31.3466 35.2892 30.9319 35.0523C28.0124 33.3642 25.0804 31.723 22.2095 29.9472C21.2348 29.3589 20.2509 28.6172 19.5881 27.7099C19.1098 27.0533 18.842 25.7989 19.1825 25.1855C19.4869 24.6129 20.2362 23.8826 21.3866 24.1909Z" fill="#CD4631"/>
<path d="M66.9547 25.9831C66.8557 26.2585 66.7567 26.5339 66.5936 26.767C65.8863 27.8105 65.282 29.0325 63.6935 28.4811C62.0111 27.9045 62.3181 26.477 62.6499 25.3329C63.4626 22.5814 64.4632 19.8803 65.4231 17.1431C65.7875 16.1587 66.1817 15.1572 66.7213 14.2701C67.2672 13.3595 67.9369 12.4569 69.2545 12.9861C70.4783 13.4902 70.6744 14.4486 70.3959 15.5818C70.0688 16.8026 67.8059 23.7452 66.9547 25.9831Z" fill="#CD4631"/>
</svg>
