<svg xmlns="http://www.w3.org/2000/svg"  viewBox="0 0 80 80" width="16px" height="16px"><path fill="#b2a9d1" d="M4.5 4.5H75.5V75.5H4.5z"/><path fill="#8b75a1" d="M76,76H4V4h72V76z M5,75h70V5H5V75z"/><path fill="#fff" d="M40 30.005A5.495 5.495 0 1 0 40 40.995A5.495 5.495 0 1 0 40 30.005Z"/><path fill="#fff" d="M56.5,37.5C56.5,28.402,49.098,21,40,21s-16.5,7.402-16.5,16.5c0,5.464,2.681,10.302,6.784,13.306 c-0.101-1.561,0.205-3.083,0.887-4.466c-2.267-2.264-3.672-5.391-3.672-8.84C27.5,30.607,33.107,25,40,25s12.5,5.607,12.5,12.5 c0,3.453-1.407,6.582-3.678,8.846c0.681,1.383,0.986,2.906,0.884,4.468C53.815,47.81,56.5,42.969,56.5,37.5z"/><path fill="#fff" d="M40.027,13c-13.505,0-24.492,10.987-24.492,24.492c0,10.457,6.589,19.4,15.832,22.906l-0.522-4.522 c-6.742-3.382-11.391-10.342-11.391-18.384c0-11.345,9.23-20.574,20.574-20.574c11.344,0,20.574,9.229,20.574,20.574 c0,8.07-4.681,15.049-11.46,18.417l-0.521,4.516c9.279-3.488,15.9-12.45,15.9-22.933C64.52,23.987,53.533,13,40.027,13z"/><path fill="#fff" d="M40.002,68h-0.014c-2.555,0-4.699-1.651-4.972-3.829l-1.723-13.788 C32.867,46.974,35.984,44,39.985,44h0.021c4.001,0,7.118,2.974,6.692,6.383l-1.723,13.788C44.701,66.349,42.557,68,40.002,68z"/></svg>