<svg width="90" height="92" viewBox="0 0 90 92" fill="none" xmlns="http://www.w3.org/2000/svg">
<path d="M3.09138 45.6685C0.134925 43.9113 1.87624 39.3661 5.25004 40.0341L22.2716 43.4043C26.0798 44.1583 29.3014 40.552 28.1245 36.8527L20.8395 13.9536C19.8368 10.8017 23.8523 8.51978 26.047 10.9944L37.6669 24.0967C39.9594 26.6817 44.1045 26.2884 45.8698 23.3183L57.8128 3.22507C59.3578 0.625657 63.3352 1.60208 63.5009 4.62146L64.8859 29.8658C65.0706 33.2317 68.4106 35.4964 71.6058 34.4224L83.6098 30.3877C86.7711 29.3251 89.1115 33.3668 86.6163 35.5797L74.1146 46.6669C71.5296 48.9594 71.923 53.1045 74.8931 54.8698L86.9684 62.0471C89.9031 63.7914 88.2116 68.3043 84.8533 67.6898L63.0202 63.6948C59.0509 62.9686 55.8493 66.9195 57.3824 70.652L63.6154 85.8266C64.9563 89.0912 60.6205 91.6587 58.4026 88.9136L44.026 71.1197C41.3796 67.8443 36.1287 69.0037 35.1076 73.0889L33.4791 79.6046C32.5918 83.1547 27.3507 82.4379 27.4491 78.78L27.5916 73.485C27.6917 69.7629 23.9001 67.1906 20.4786 68.6596L9.74176 73.2692C6.54789 74.6404 3.90246 70.4722 6.50293 68.166L15.0967 60.5445C17.6818 58.2519 17.2884 54.1069 14.3183 52.3415L3.09138 45.6685Z" fill="black" stroke="black" stroke-width="2.04081"/>
</svg>
